<svg xmlns="http://www.w3.org/2000/svg" viewBox="0 0 300 345" xml:space="preserve"><g transform="translate(150 172.5)"/><g transform="matrix(0 0)"/><g transform="matrix(0 0)"/><g transform="matrix(0 0)"/><path style="stroke:none;stroke-width:1;stroke-dasharray:none;stroke-linecap:butt;stroke-dashoffset:0;stroke-linejoin:miter;stroke-miterlimit:4;fill:#000;fill-rule:nonzero;opacity:1" transform="matrix(.72 0 0 .72 -102 -29.1)" d="M340.82 58.27c-41.395 25.621-105.6 40.746-155.93 21.023-9.797-3.863-22.234 4.023-22.926 14.539-11.516 170.66 20.527 264.02 63.527 319.2 43.004 55.176 96.344 72.73 112.71 87.066 6.242 5.41 16.594 5.168 22.578-.527 20.289-12.141 83.887-52.504 111.48-86.543 43.91-55.094 77.469-148.44 65.805-319.2-.695-10.52-13.129-18.406-22.926-14.54-50.02 19.696-114.34 4.712-156.63-21.022-6.934-3.442-11.137-2.575-17.676 0zm8.75 32.934c43.504 24.203 101.12 39.176 155.76 26.102 7.105 151.03-23.406 229.8-59.328 274.87-26.355 35.066-64.746 51.773-96.957 74.629-27.883-19.566-64.746-32.902-97.129-74.457-35.07-44.992-64.5-123.93-57.402-275.05 54.672 13.094 112.04-1.922 155.06-26.102zm-8.574 34.336c-26.79 16.539-69.094 26.301-100.98 13.84-9.762-3.727-22.023 4.11-22.75 14.539-7.856 116.12 13.953 180.75 44.102 219.34 30.148 38.582 67.867 51.578 77.004 59.562 6.261 5.508 16.75 5.262 22.75-.527 14.34-6.47 57.223-35.832 75.953-58.863 30.766-38.5 53.637-103.3 45.68-219.51-.696-10.52-13.13-18.406-22.926-14.54-31.66 12.435-73.895 2.813-101.33-13.84-6.906-3.429-11.012-2.585-17.5 0zm25.727 40.645c25.066 10.031 53.969 14.824 82.78 9.637 1.274 34.672-.468 63.363-4.198 87.418h-78.578zm-105.36 130.69h71.754v92.5c-14.95-8.848-30.82-18.398-45.328-36.965-10.168-13.012-19.551-30.855-26.426-55.535"/></svg>